<svg xmlns="http://www.w3.org/2000/svg" id="_레이어_2" data-name="레이어 2" viewBox="0 0 248.7 498.66">
  <g id="_레이어_1-2" data-name="레이어 1">
    <path d="m113.05,51.84c.2-1.3,1.34-2.26,2.63-2.22,1.23.04,2.29.97,2.48,2.22,0,2.22-.13,5.16-.65,8.57-.24,1.56-3.14,19.34-11.26,26.06-2.37,1.97-4.08,4.54-6.33,6.63-2.06,1.91-2.06,3.55-.85,6.03,5.32,10.88,12.8,20.61,18.86,31.1,1.78,3.09,5.68,1.04,8.59,1.3,2.61.23,2.2-1.9,2.64-3.56,1.96-7.39,6.46-13.73,10.48-20.2,3.73-5.99,6.8-12.31,10.94-18.11,1.55-2.17.85-4.99-1.73-6.97-9.54-7.35-14.86-16.99-17.31-28.09-.91-4.13-2.14-8.29-1.22-12.74,4.97-.95,5.35,2.23,5.74,5.28,1.23,9.7,4.31,18.63,12.68,25.16,3.84,2.99,8.07,5.59,12.22,8.23,3.68,2.35,7.21.47,10.54-.84,8.26-3.26,16.63-6.3,24.39-10.59,8.78-4.85,13.65-11.56,14.37-21.29.44-5.96.73-11.9.81-17.86.02-1.5.23-2.85,2.16-3.06,2.05-.21,1.68,1.24,1.93,2.46,1.65,8.08.96,16.25,1.1,24.38.02,1.48-.55,2.99.24,4.45,9.98-3.63,10.89-9.37,4.87-19.39-1.38-2.29-3.18-4.29-1.52-7.86,8.01,3.12,8.99,11.4,14.78,16.81,11.5-14.5,8.14-31.42,9.43-47.49,1.6-.41,2.67-.25,3.31.32.78.69.79,1.86.79,2.33.04,7.36,1.03,14.75.25,22.07-1.19,11.17-1.11,10.76-1.17,11.11-1.02,5.47-2.32,13.12-7.3,19.46-2.87,3.66-6.69,6.79-11.68,9.32-12.49,6.32-24.62,13.27-37.24,19.35-7.66,3.7-15.98,6.21-23.95,9.37-3.88,1.54-7.93,4.09-7.61,8.01.3,3.71,5.28,3.86,8.62,4.45,6.19,1.09,12.44,1.58,17.52-3.13.44-.41,1.04-.74,1.63-.93.42-.14.96.03,1.44.06-.01,5.39-6.63,10.85-13.55,11.01-5.83.13-11.67.18-17.49-.09-2.99-.14-4.98,1.14-6.04,3.18-2.86,5.52-4.89,11.35-6.42,17.3-.35,1.37.45,2.33,2.12,3.04,2.99-2.92,4.71-6.84,8.76-9.21,5.62-3.29,11.72-4.71,17.99-5.79,3.57-.61,5.4,1.65,3.61,4.33-4.62,6.94-8.27,14.55-15.73,20.12,6.32,4.5,8.02,10.59,7.18,17.41-.66,5.36,3.3,8.69,6.22,12.39,3.87,4.91,8.43,9.37,12.12,14.39,2.71,3.68,4.55,9.6-.13,14.12-.34.32-.91.67-.94,1.03-.63,9.06-8.58,8.04-14.72,8.8-5.25.65-10.72.56-16.46-2.62,3.62,15.24,6.36,29.5,7.81,43.93.23,2.33,1.18,3.01,3.48,3.52,7.01,1.57,12.04,5.75,15.51,11.44,1.39,2.27,3.07,3.61,5.74,4.5,4.58,1.53,8.49,4.32,12.57,6.75,9.62,5.72,8.39,14.52,7.49,23.12-.64,6.15-1.94,12.25-2.64,18.41-1.1,9.79-2.72,19.52-3.81,29.29-1.03,9.21-2.28,18.41-3.28,27.63-1.11,10.24-2.65,20.44-3.9,30.67-1.09,8.88-1.99,17.79-3.07,26.67,0,0-2.64,11.69-3.17,24.37-.09,2.17,0,4.16.56,6.36.67,2.61,1.31,2.83,1.69,4.85.71,3.78-.79,7.04-1.33,8.07-.85,1.65-2.19,3.34-5.71,5.74-6.01,4.11-11.64,5.7-12.19,5.85-17.7,4.84-34.8,5.33-34.8,5.33-23.69,1.46-47.33,1.5-70.09-6.29-2.33-.8-4.57-1.88-6.77-2.97-7.72-3.78-11.82-12.18-9.8-20.16,1.44-5.71.32-11.44-.63-16.95-1.22-7.04-1.47-14.15-2.74-21.16-2.19-12.09-2.98-24.34-4.66-36.5-1.29-9.32-2.45-18.71-3.41-28.09-.96-9.32-2.58-18.59-3.69-27.91-.64-5.41-1.3-10.82-2.07-16.22-1.46-10.25-2.27-20.59-3.12-30.91-.54-6.65,3.48-11.22,9.17-14.43,4.69-2.65,9.56-5.11,14.89-6.65,1.65-.47,3.5-1.22,4.4-2.79,2.91-5.09,7.78-7.58,13.54-8.68,3.1-.59,3.69-2.11,3.76-4.78.21-7.42-.74-14.84.16-22.26,2.07-17.04,2.92-34.12,3.3-51.27.17-7.93,2.25-16,6.02-23.85-12.17-2.48-14.34-11.22-15.35-20.78-.31-2.93,1.73-4.27,3.87-4.4,7.36-.44,14.86-.84,20.47,5.14,1.09,1.17,2.25,2.96,4.53,1.71,2.18-1.2,2.79-3.2,2.13-5.18-2.96-8.93-2.61-10.58-13.23-10.25-3.66.11-7.35-.17-10.99.08-7.92.54-12.27-3.75-16.01-9.5,1.54-1.19,3.2-1.16,4.17-.28,7.64,7.03,15.7,4.09,23.78,1.21-6.19-7.9-13.35-14.04-23.73-17.31-9.98-3.14-18.88-8.85-28.19-13.56-5.5-2.79-10.66-6.15-16.28-8.66-8.73-3.9-13.58-10.62-16.33-18.64C-1.61,41.48.45,26.81.37,12.33c0-.56.39-1.15.69-1.67.13-.23.52-.32,1.06-.64,3,1.81,2.66,4.92,2.84,7.55.36,5.39.37,10.82.22,16.22-.22,8.07,2.67,15.23,6.95,22.04.73,1.17,1.75,1.84,2.89,1.58,4.57-5.37,5.84-12.75,13.14-16.33,1.86,2.9.56,4.88-.4,6.93-1.41,3-3.76,5.59-3.72,9.2.09,7,1.14,8.54,8.83,11.27v-31.29c4.3-.51,4.28,1.69,4.24,4-.1,7.16.64,14.25,2.04,21.29,1.21,6.09,4.38,10.85,10.13,14.08.55.32,1.18.52,1.72.84,10.13,6.02,12.19,6.3,20.17-2.23,9.42-10.08,19.34-19.93,22.31-34.02,2.13-10.11,1.46-19.74-1.55-29.61,3.37-1.17,5.28.06,6.19,2.77,1.06,3.15,2,6.3,2.02,9.7.05,9.82.32,19.64-1.59,30.12,9.73-4.3,14.5-13.02,22.93-17.36.13,4.53-2.7,7.07-5.21,9.83-.24.26-1.65,1.59-3.23,3.62-.31.39-.54.71-.69.91-.25.24-.62.6-1.1,1.04-.87.8-1.53,1.38-1.71,1.53-2.89,2.49-5.64,5.15-8.57,7.59-8.81,7.33-17.54,14.8-23.95,24.16,5.73,5.67,5.72,5.45,9.82,5.39,3.06-.05,3.94-2.54,5.92-3.74,7.17-4.37,13.57-9.4,16.51-17.32,2.17-5.83,2.47-11.97,3.78-17.95Z"/>
  </g>
</svg>